<?xml version="1.0" encoding="UTF-8"?>
<svg width="158" height="42" viewBox="0 0 158 42" fill="none" xmlns="http://www.w3.org/2000/svg">
     <g clip-path="url(#clip0_1110_7)">
     <path d="M141.964 5.12435H149.535V12.8111H157.054V19.1243H149.535V29.5847C149.535 33.7847 151.244 34.7621 154.267 34.7621C155.477 34.7621 156.712 34.5508 157.869 34.1545V40.4149C157.869 40.4149 156.66 41.3923 153.189 41.3923C143.725 41.3923 141.964 36.6376 141.964 31.3281V5.12435ZM111.494 40.8376H119.144V25.7281C119.144 21.7923 120.906 18.7281 124.928 18.7281C128.241 18.7281 129.949 20.8413 129.949 25.2526V40.8376H137.547V23.8262C137.547 16.747 134.655 11.9394 127.373 11.9394C123.85 11.9394 120.801 13.2866 118.987 16.2187V12.8111H111.547L111.494 40.8376ZM93.6962 11.9394C90.2523 11.9394 86.8347 12.547 83.6011 13.7093V20.0225C86.414 18.7809 89.4636 18.1206 92.5395 18.0942C97.2716 18.0942 99.7691 19.9168 99.7691 24.2225C97.7185 23.6413 95.5891 23.3772 93.4859 23.4036C87.3867 23.4036 81.6293 26.5998 81.6293 32.8602C81.6293 38.6715 85.8357 41.7092 91.4353 41.7092C95.1684 41.7092 98.0077 40.4942 99.9006 38.0904L100.111 40.8111H106.867V24.6451C106.894 16.2187 101.951 11.9394 93.6962 11.9394ZM93.8277 35.9508C90.7781 36.1621 88.9641 34.8677 88.8064 32.6225C88.6749 30.0338 91.2513 28.8715 94.0117 28.6866C97.6659 28.4753 99.5588 29.7696 99.6377 31.5923C99.7428 33.8376 98.034 35.7394 93.8277 35.9508ZM69.6939 4.43755C69.615 6.7885 71.429 8.76963 73.7688 8.87529C73.9002 8.87529 74.0317 8.87529 74.1631 8.87529C76.5818 8.87529 78.5535 6.89416 78.5535 4.46397C78.5535 2.03378 76.5818 0.0526475 74.1631 0.0526475C71.8233 -0.079428 69.8253 1.74321 69.6939 4.09416C69.6939 4.1734 69.6939 4.30548 69.6939 4.43755ZM70.3774 40.8376H78.0803V12.8111H70.3511V40.8376H70.3774ZM58.0476 40.8376H65.6979V0.765855H58.0476V40.8376ZM40.4074 11.9394C38.1202 11.9659 35.8593 12.2828 33.651 12.9168L31.2323 19.8376C33.7561 18.7017 36.4639 18.1206 39.2243 18.147C43.9565 18.147 46.4803 19.9696 46.4803 24.2753C44.4297 23.6942 42.3002 23.43 40.1708 23.4564C34.1242 23.4564 28.3405 26.6526 28.3405 32.913C28.3405 38.7243 32.5468 41.7621 38.1465 41.7621C41.8796 41.7621 44.7189 40.547 46.6117 38.1432L46.822 40.864H53.5784V24.6715C53.6047 16.2187 48.6623 11.9394 40.4074 11.9394ZM40.5388 35.9508C37.4892 36.1621 35.6753 34.8677 35.5175 32.6225C35.3861 30.0338 37.9624 28.8715 40.7228 28.6866C44.3771 28.4753 46.2699 29.7696 46.3488 31.5923C46.5065 33.8376 44.7451 35.7394 40.5388 35.9508ZM10.8842 40.8376H18.7974L29.6287 12.8111H21.6367L14.9854 32.8074L8.57077 12.8111H0.131836L10.8842 40.8376Z" fill="#725BA7"></path>
     </g>
     <defs>
     <clipPath id="clip0_1110_7">
     <rect width="158" height="42" fill="white"></rect>
     </clipPath>
     </defs>
     </svg>
