<?xml version="1.0" encoding="UTF-8"?>
<svg width="151" height="30" viewBox="0 0 151 30" fill="none" xmlns="http://www.w3.org/2000/svg">
     <g clip-path="url(#clip0_1266_55)">
     <path d="M4.43534 4.27305C4.76298 4.17446 5.04894 3.97409 5.25001 3.70221C5.45108 3.43032 5.55632 3.10172 5.54983 2.76607C5.54983 1.36037 4.38833 0.838599 2.84455 0.838599H0.0400391V7.91928H3.01271C4.65991 7.91928 5.71904 7.30544 5.71904 5.89667C5.71298 5.5265 5.58462 5.16821 5.35319 4.8755C5.12176 4.58279 4.79973 4.37142 4.43534 4.27305ZM1.2078 1.91078H2.79755C3.60809 1.91078 4.32566 2.03764 4.32566 2.852C4.32566 3.69706 3.61853 3.81778 2.80799 3.81778H1.2078V1.91078ZM2.9584 6.8471H1.2078V4.88485H2.9584C3.87757 4.88485 4.49174 5.05673 4.49174 5.85574C4.49174 6.67523 3.87757 6.8471 2.9584 6.8471ZM4.43534 14.6224C4.76317 14.524 5.04937 14.3237 5.25064 14.0518C5.45191 13.78 5.5573 13.4512 5.55087 13.1155C5.55087 11.7098 4.38938 11.188 2.84559 11.188H0.0400391V18.2656H3.01271C4.65991 18.2656 5.71904 17.6518 5.71904 16.243C5.71209 15.8735 5.58332 15.5162 5.35196 15.2243C5.1206 14.9324 4.79905 14.7216 4.43534 14.6235V14.6224ZM1.2078 12.2602H2.79755C3.60809 12.2602 4.32566 12.387 4.32566 13.2014C4.32566 14.0465 3.61853 14.1672 2.80799 14.1672H1.2078V12.2602ZM2.9584 17.1965H1.2078V15.2353H2.9584C3.87757 15.2353 4.49174 15.4071 4.49174 16.2062C4.49174 17.0256 3.87757 17.1985 2.9584 17.1985V17.1965ZM20.173 5.87621H20.7099L22.357 7.92235H23.7254L21.6363 5.35853L23.7066 3.07708H22.3487L20.7172 4.91861H20.1751V0.636031H19.0877V7.91928H20.1719L20.173 5.87621ZM21.229 18.3966C21.9309 18.3966 22.4427 18.1183 22.7832 17.6886V20.2933H23.8611V13.4255H22.7822V14.0117C22.4416 13.582 21.9298 13.2955 21.2279 13.2955C19.844 13.2955 18.7545 14.3626 18.7545 15.845C18.7545 17.3275 19.844 18.3966 21.2279 18.3966H21.229ZM21.3585 14.2951C22.2515 14.2951 22.8511 14.9631 22.8511 15.8481C22.8511 16.733 22.2526 17.4011 21.3585 17.4011C20.4289 17.4011 19.8659 16.6983 19.8659 15.8481C19.8659 14.9979 20.4278 14.2951 21.3574 14.2951H21.3585ZM4.43743 24.9749C4.76526 24.8765 5.05146 24.6762 5.25273 24.4043C5.454 24.1324 5.55939 23.8037 5.55296 23.4679C5.55296 22.0622 4.39147 21.5405 2.84768 21.5405H0.0400391V28.6211H3.01271C4.65991 28.6211 5.71904 28.0073 5.71904 26.5985C5.71321 26.2282 5.58495 25.8697 5.3535 25.5768C5.12206 25.2838 4.7999 25.0723 4.43534 24.9739L4.43743 24.9749ZM1.20989 22.6126H2.79755C3.60809 22.6126 4.32566 22.7395 4.32566 23.5539C4.32566 24.3989 3.61853 24.5196 2.80799 24.5196H1.2078L1.20989 22.6126ZM2.96049 27.549H1.2078V25.5867H2.9584C3.87757 25.5867 4.49174 25.7586 4.49174 26.5576C4.49174 27.3771 3.87757 27.549 2.9584 27.549H2.96049ZM143.206 18.8303C146.618 17.2292 148.483 14.2593 148.483 10.3644V10.2856C148.483 7.61952 147.606 5.35137 145.948 3.72673C144.015 1.83405 141.121 0.833483 137.576 0.833483H125.025V28.6211H132.554V20.2637H135.617L141.119 28.6211H150.041L143.206 18.8303ZM140.836 10.8504C140.836 13.2034 139.21 14.4721 136.513 14.4721H132.553V7.14584H136.47C139.126 7.14584 140.834 8.2395 140.834 10.7675L140.836 10.8504ZM33.292 13.2986C31.836 13.2986 30.8291 14.3298 30.8291 15.8481C30.8291 17.3827 31.8736 18.3976 33.3589 18.3976C34.1078 18.3976 34.7888 18.2206 35.3936 17.7152L34.8567 16.9612C34.4507 17.2815 33.948 17.4613 33.4268 17.4727C32.7248 17.4727 32.0992 17.1085 31.955 16.2389H35.6108C35.6213 16.1172 35.6317 15.9811 35.6317 15.844C35.6265 14.3298 34.676 13.2986 33.292 13.2986ZM31.9603 15.4327C32.0741 14.7248 32.5024 14.2388 33.2722 14.2388C33.9595 14.2388 34.4086 14.6787 34.5256 15.4327H31.9603ZM64.877 7.47936C65.8492 7.47815 66.8122 7.66516 67.7104 8.02965C68.6086 8.39414 69.4245 8.92893 70.111 9.60326L75.345 4.47664C73.9719 3.12821 72.3401 2.05886 70.5437 1.33006C68.7472 0.601259 66.8214 0.227366 64.877 0.229871C56.7005 0.229871 49.8141 6.17494 49.8141 14.7299C49.8141 23.2848 56.7005 29.2299 64.877 29.2299C66.8214 29.2324 68.7472 28.8585 70.5437 28.1297C72.3401 27.4009 73.9719 26.3315 75.345 24.9831L70.111 19.8565C69.25 20.6992 68.1902 21.321 67.0254 21.6667C65.8605 22.0125 64.6266 22.0716 63.4328 21.8387C62.2391 21.6059 61.1224 21.0884 60.1816 20.3319C59.2409 19.5755 58.505 18.6035 58.0393 17.502C57.5736 16.4005 57.3924 15.2036 57.5117 14.0171C57.631 12.8307 58.0472 11.6914 58.7233 10.7001C59.3995 9.70876 60.3147 8.89605 61.3881 8.33392C62.4615 7.77178 63.6598 7.47756 64.877 7.47731V7.47936ZM27.7081 24.36C27.3676 23.9304 26.8557 23.6439 26.1538 23.6439C24.7699 23.6439 23.6804 24.711 23.6804 26.1934C23.6804 27.6758 24.7699 28.7429 26.1538 28.7429C26.8557 28.7429 27.3676 28.4646 27.7081 28.0349V28.6171H28.787V23.7759H27.7081V24.36ZM26.2834 27.7485C25.3537 27.7485 24.7908 27.0456 24.7908 26.1954C24.7908 25.3453 25.3537 24.6424 26.2834 24.6424C27.1764 24.6424 27.776 25.3105 27.776 26.1954C27.776 27.0804 27.1764 27.7515 26.2834 27.7515V27.7485ZM10.646 24.3621C10.3055 23.9324 9.79367 23.6459 9.09176 23.6459C7.70779 23.6459 6.61836 24.713 6.61836 26.1954C6.61836 27.6779 7.70779 28.7449 9.09176 28.7449C9.79367 28.7449 10.3055 28.4667 10.646 28.037V28.6191H11.725V23.7759H10.646V24.3621ZM9.22026 27.7515C8.29062 27.7515 7.72763 27.0487 7.72763 26.1985C7.72763 25.3483 8.29062 24.6455 9.22026 24.6455C10.1133 24.6455 10.7128 25.3136 10.7128 26.1985C10.7128 27.0835 10.1154 27.7515 9.22026 27.7515ZM107.295 17.6518H117.786V11.766H107.295V7.51107H120.092V0.838599H99.7667V28.6211H120.283V21.9333H107.295V17.6518ZM86.4503 0.838599H78.7397V28.6211H96.8348V21.9251H86.4503V0.838599ZM28.7139 16.1172C28.7139 17.0533 28.1823 17.397 27.5054 17.397C26.8286 17.397 26.2969 17.0533 26.2969 16.1172V13.4255H25.2138V16.2195C25.2138 17.7623 26.345 18.3996 27.5065 18.3996C28.668 18.3996 29.7992 17.7623 29.7992 16.2195V13.4255H28.7139V16.1172ZM10.6439 3.65716C10.3034 3.22747 9.79159 2.94101 9.08967 2.94101C7.7057 2.94101 6.61627 4.00808 6.61627 5.49051C6.61627 6.97294 7.70779 8.04614 9.09176 8.04614C9.79367 8.04614 10.3055 7.76787 10.646 7.33818V7.9203H11.725V3.07401H10.646L10.6439 3.65716ZM9.22026 7.04967C8.29062 7.04967 7.72763 6.34682 7.72763 5.49665C7.72763 4.64647 8.29062 3.9426 9.22026 3.9426C10.1133 3.9426 10.7128 4.61067 10.7128 5.49562C10.7128 6.38058 10.1154 7.04967 9.22026 7.04967ZM10.645 14.0117C10.3044 13.582 9.79263 13.2955 9.09072 13.2955C7.70674 13.2955 6.61732 14.3626 6.61732 15.845C6.61732 17.3275 7.70674 18.3945 9.09072 18.3945C9.79263 18.3945 10.3044 18.1162 10.645 17.6865V18.2656H11.7239V13.4255H10.646L10.645 14.0117ZM9.22026 17.4001C8.29062 17.4001 7.72763 16.6972 7.72763 15.8471C7.72763 14.9969 8.29062 14.294 9.22026 14.294C10.1133 14.294 10.7128 14.9621 10.7128 15.8471C10.7128 16.732 10.1154 17.4001 9.22026 17.4001ZM15.7129 23.649C15.2074 23.649 14.5922 23.7953 14.1952 24.3652V23.7738H13.1215V28.6191H14.2057V25.9386C14.2057 25.1089 14.7896 24.6588 15.4863 24.6588C16.2091 24.6588 16.6352 25.1141 16.6352 25.9284V28.6242H17.7194V25.5765C17.7215 24.4429 16.8911 23.649 15.7129 23.649ZM21.3261 24.6455C21.8014 24.6455 22.168 24.8276 22.5137 25.1458L23.2052 24.4225C22.7665 23.9109 22.0949 23.649 21.3564 23.649C19.7813 23.649 18.7535 24.7468 18.7535 26.1985C18.7535 27.6502 19.7813 28.748 21.3564 28.748C22.0949 28.748 22.756 28.4851 23.2052 27.9746L22.5388 27.2461C22.2141 27.559 21.7804 27.7396 21.3251 27.7515C20.4895 27.7515 19.8628 27.1142 19.8628 26.1985C19.8628 25.2829 20.4947 24.6455 21.3261 24.6455ZM15.7129 13.2986C15.2074 13.2986 14.5922 13.4449 14.1952 14.0147V13.4234H13.1215V18.2656H14.2057V15.5841C14.2057 14.7544 14.7896 14.3043 15.4863 14.3043C16.2091 14.3043 16.6352 14.7595 16.6352 15.5739V18.2656H17.7194V15.225C17.7215 14.0925 16.8911 13.2986 15.7129 13.2986ZM15.7129 2.94817C15.2074 2.94817 14.5922 3.09447 14.1952 3.66432V3.07401H13.1215V7.91928H14.2057V5.23372C14.2057 4.404 14.7896 3.95385 15.4863 3.95385C16.2091 3.95385 16.6352 4.40912 16.6352 5.22349V7.91928H17.7194V4.87462C17.7215 3.73799 16.8911 2.94817 15.7129 2.94817Z" fill="#009EE2"></path>
     </g>
     <defs>
     <clipPath id="clip0_1266_55">
     <rect width="150" height="29" fill="white" transform="translate(0.0400391 0.22998)"></rect>
     </clipPath>
     </defs>
     </svg>
