<svg width="153" height="58" viewBox="0 0 153 58" fill="none" xmlns="http://www.w3.org/2000/svg">
<g clip-path="url(#clip0_443_152)">
<path d="M150.904 58H2.12275C0.94046 58 0 57.0593 0 55.8767V2.12326C0 0.940686 0.94046 0 2.12275 0H150.877C152.059 0 153 0.940686 153 2.12326V55.8767C153.026 57.0593 152.059 58 150.904 58Z" fill="black"/>
<path d="M48 39.3883C48 39.9472 47.598 40.6393 47.1157 40.9054L29.8843 50.7804C29.402 51.0732 28.598 51.0732 28.1157 50.7804L10.8843 40.9054C10.402 40.6127 10 39.9472 10 39.3883V19.6117C10 19.0528 10.402 18.3607 10.8843 18.0946L28.1157 8.21959C28.598 7.9268 29.402 7.9268 29.8843 8.21959L47.1157 18.0946C47.598 18.3873 48 19.0528 48 19.6117V39.3883Z" fill="white"/>
<path d="M142.838 20.6841H127.358V24.2891H132.894V39.7631H137.275V24.2891H142.838V20.6841Z" fill="white"/>
<path d="M72.5337 20.6841H57.0537V24.2891H62.6167V39.7631H66.9977V24.2891H72.5337V20.6841Z" fill="white"/>
<path d="M117.334 20.0791C112.469 20.0791 109.755 23.1317 109.755 27.5265V39.7633H114.082V27.4212C114.082 25.5002 115.237 24.0265 117.387 24.0265C119.511 24.0265 120.666 25.7633 120.666 27.4212V39.7633H124.993V27.5265C124.993 23.1317 122.198 20.0791 117.334 20.0791Z" fill="white"/>
<path d="M100.968 20.6841V39.7631H105.321V20.6841H100.968Z" fill="white"/>
<path d="M86.294 28.2631L86.455 29.1051L90.513 39.7631H92.287L97.823 20.6841H93.55L90.889 30.7111L90.755 31.7891L90.54 30.7111L86.992 20.6841H85.595L82.074 30.7111L81.859 31.7891L81.698 30.7111L79.064 20.6841H74.791L80.328 39.7631H82.101L86.159 29.1051L86.294 28.2631Z" fill="white"/>
<path d="M37.0031 29.1284L32.5825 35.4361L30.306 32.0515L32.9266 28.2566C33.4031 27.59 34.4619 25.7182 33.2442 23.1797C32.2648 21.1284 30.1472 20.1284 28.2943 20.1284C26.4413 20.1284 24.4031 21.0515 23.3442 23.1797C22.1266 25.6156 23.1854 27.5387 23.6354 28.1797C23.6354 28.1797 25.0913 30.2566 26.309 32.0002L28.2943 34.7694L31.259 39.1541C31.2854 39.1797 31.7619 39.872 32.5825 39.872C33.3766 39.872 33.8531 39.1797 33.9325 39.1028L40.8942 29.1284H37.0031ZM28.2943 29.2823C28.2943 29.2823 27.1295 27.5643 26.3884 26.3848C25.5678 25.1028 26.4943 23.2053 28.2943 23.2053C30.1207 23.2053 31.0207 25.1028 30.2001 26.3848C29.459 27.59 28.2943 29.2823 28.2943 29.2823Z" fill="url(#paint0_radial_443_152)"/>
<path d="M24.0056 35.2312L19.638 29.3081C19.638 29.3081 18.4733 27.5902 17.7321 26.4107C16.9115 25.1287 17.838 23.2312 19.638 23.2312C19.8762 23.2312 20.088 23.2569 20.2733 23.3081L21.8086 20.5902C21.0939 20.3081 20.3527 20.1543 19.638 20.1543C17.7851 20.1543 15.7468 21.0774 14.688 23.2056C13.4704 25.6415 14.5292 27.5646 14.9792 28.2056L22.6027 39.1543C22.6556 39.2569 23.1586 39.9492 23.9527 39.9492C24.7733 39.9492 25.2233 39.2825 25.3027 39.1799L27.6056 35.7953L25.6204 32.9748L24.0056 35.2312Z" fill="url(#paint1_radial_443_152)"/>
</g>
<defs>
<radialGradient id="paint0_radial_443_152" cx="0" cy="0" r="1" gradientUnits="userSpaceOnUse" gradientTransform="translate(26.8285 21.721) scale(20.5076)">
<stop stop-color="#FFCC00"/>
<stop offset="0.09157" stop-color="#FFC800"/>
<stop offset="0.1739" stop-color="#FFBD00"/>
<stop offset="0.2528" stop-color="#FFAB00"/>
<stop offset="0.3295" stop-color="#FF9100"/>
<stop offset="0.4046" stop-color="#FF7000"/>
<stop offset="0.4786" stop-color="#FF4700"/>
<stop offset="0.5503" stop-color="#FF1800"/>
<stop offset="0.5822" stop-color="#FF0000"/>
<stop offset="1" stop-color="#FF0000"/>
</radialGradient>
<radialGradient id="paint1_radial_443_152" cx="0" cy="0" r="1" gradientUnits="userSpaceOnUse" gradientTransform="translate(14.4662 22.0972) scale(18.8038 18.8039)">
<stop stop-color="#00B4E6"/>
<stop offset="0.201" stop-color="#00B0E3"/>
<stop offset="0.3898" stop-color="#01A5DB"/>
<stop offset="0.5737" stop-color="#0292CD"/>
<stop offset="0.7546" stop-color="#0377BA"/>
<stop offset="0.9316" stop-color="#0455A1"/>
<stop offset="1" stop-color="#054696"/>
</radialGradient>
<clipPath id="clip0_443_152">
<rect width="153" height="58" fill="white"/>
</clipPath>
</defs>
</svg>
