<svg width="1027" height="1111" viewBox="0 0 1027 1111" fill="none" xmlns="http://www.w3.org/2000/svg">
<path d="M-419.845 428.799C-440.962 392.456 -440.962 347.579 -419.845 311.237L-346.586 185.159L-273.762 58.6347C-252.839 22.2847 -214.061 -0.0856844 -172.12 0.000182435L-25.8661 0.29961L120.387 0.000169665C162.329 -0.0857008 201.107 22.2846 222.03 58.6346L294.854 185.159L402.268 370.018L188.201 740.174L-25.866 739.736L-172.12 740.035C-214.061 740.121 -252.839 717.751 -273.762 681.401L-346.586 554.877L-419.845 428.799Z" fill="#EEEEEE"/>
<path fill-rule="evenodd" clip-rule="evenodd" d="M937.587 555.846L1010.85 681.924C1031.96 718.267 1031.96 763.143 1010.85 799.486L937.587 925.564L864.762 1052.09C843.839 1088.44 805.061 1110.81 763.12 1110.72L616.866 1110.42L470.613 1110.72C428.671 1110.81 389.893 1088.44 368.97 1052.09L296.145 925.564L188.201 740.174L402.268 370.018L616.866 370.987L763.12 370.688C805.061 370.602 843.839 392.972 864.762 429.322L937.587 555.846ZM616.866 508.902L550.246 508.766C508.328 508.68 469.568 531.025 448.637 567.343L415.521 624.803L382.32 681.867C361.159 718.238 361.159 763.172 382.32 799.543L415.521 856.607L448.637 914.067C469.568 950.385 508.328 972.73 550.246 972.644L616.866 972.508L683.486 972.644C725.404 972.73 764.164 950.385 785.095 914.067L818.212 856.607L851.412 799.543C872.573 763.172 872.573 718.238 851.412 681.867L818.212 624.803L785.095 567.343C764.164 531.025 725.404 508.68 683.486 508.766L616.866 508.902Z" fill="#EEEEEE"/>
</svg>
