<?xml version="1.0" encoding="UTF-8"?>
<svg xmlns="http://www.w3.org/2000/svg" xmlns:xlink="http://www.w3.org/1999/xlink" version="1.1" x="0px" y="0px" width="127px" height="46px" viewBox="0 0 127 46" enable-background="new 0 0 127 46" xml:space="preserve"><g id="Layer_1" display="none"><image display="inline" overflow="visible" width="127" height="46" xlink:href="#data:,"></image></g><g id="Logo-Semibold-L"><path fill="#E60000" d="M74.255,27.643c0,9.51-5.196,10.651-10.393,10.651c-8.936,0-10.837-4.565-10.837-11.096V8.779h-3.295V7.004h12.484v1.775h-3.549v17.88c0,6.309,1.647,9.447,6.179,9.447c4.626,0,6.876-2.282,6.876-8.845V8.779h-3.327V7.004h8.872v1.775h-3.01V27.643z M82.747,36.17V8.779h-3.232V7.004h13.847c5.895,0,8.81,3.329,8.81,7.229c0,4.152-3.771,6.499-7.13,7.196c6.527,0.602,8.302,4.787,8.302,7.862c0,6.276-5.354,8.654-10.615,8.654H79.293V36.17H82.747z M96.53,14.581c0-2.885-1.489-5.802-4.753-5.802H88.26v11.889h3.138C94.851,20.668,96.53,17.751,96.53,14.581z M97.64,29.291c0-4.121-1.774-6.88-5.926-6.88H88.26V36.17h2.789C95.453,36.17,97.64,33.57,97.64,29.291z M117.158,8.367c-3.264,0-5.354,1.934-5.354,5.295c0,3.043,3.295,4.501,6.495,5.579c1.901,0.666,4.31,1.553,5.957,3.139c1.807,1.712,2.789,3.994,2.726,6.879c-0.127,5.39-3.897,9.035-10.552,9.066c-2.503,0-6.4-0.57-8.746-1.934l-0.253-8.115h1.965c0.158,5.452,2.725,8.306,7.224,8.306c3.612,0,5.609-2.409,5.609-6.087c0-3.17-2.63-4.533-6.623-5.864c-1.299-0.444-3.865-1.396-5.672-3.171c-1.616-1.616-2.376-3.646-2.376-5.801c0-6.309,4.499-9.035,10.076-9.035c2.218,0,5.545,0.792,7.478,1.902l0.19,7.037h-1.965C122.926,10.555,120.739,8.367,117.158,8.367z"></path><path d="M34.134,13.266l-0.826,0.688L34.18,16.8l-2.615-1.423l-0.872,0.688l2.89,1.561l-3.074,2.479l-0.826-1.102l1.101-0.873l-0.826-0.964l-1.101,0.872l-0.826-1.056l1.101-0.872l-0.826-1.056l-5.643,4.683l5.368,4.314l0.963-1.193c0.688,0.046,1.193,0.551,1.468,1.193L29.5,25.246l0.596,0.459c1.331-1.193,3.074-1.974,4.863-1.974c3.762,0,6.699,3.075,6.699,6.839c0,1.239-0.321,2.571-1.01,3.673l1.01,0.78c-0.046,0.734-0.734,1.515-1.422,1.698l-0.963-0.78c-1.331,1.285-3.074,1.974-4.909,1.974c-3.762,0-6.698-2.983-6.698-6.793c0-1.239,0.367-2.525,0.917-3.581l-0.551-0.505l-0.963,1.285c-0.688-0.092-1.285-0.551-1.468-1.285l0.964-1.147l-4.542-3.764v5.967l1.514,0.046c0.184,0.229,0.321,0.551,0.321,0.918c0,0.321-0.138,0.689-0.275,0.964h-1.56v0.735c3.304,0.55,6.056,3.351,6.056,6.747c0,3.534-2.707,6.334-6.056,6.885v1.194c-0.321,0.183-0.734,0.321-1.101,0.321c-0.413,0-0.872-0.139-1.239-0.321v-1.194c-3.349-0.551-5.964-3.351-5.964-6.885c0-3.396,2.615-6.197,5.964-6.702v-0.78h-1.56c-0.183-0.274-0.275-0.643-0.275-0.964c0-0.367,0.092-0.688,0.275-0.964h1.56v-5.967l-4.588,3.764l1.009,1.147c-0.229,0.734-0.826,1.193-1.514,1.285l-0.964-1.285l-0.596,0.505c0.642,1.056,0.963,2.342,0.963,3.581c0,3.81-2.936,6.793-6.698,6.793c-1.79,0-3.579-0.688-4.863-1.974l-1.009,0.78C0.78,36.538,0.092,35.758,0,35.023l0.963-0.78C0.367,33.142,0,31.81,0,30.57c0-3.764,2.937-6.839,6.698-6.839c1.835,0,3.579,0.78,4.909,1.974l0.551-0.413l-0.963-1.239c0.229-0.643,0.826-1.102,1.514-1.193l0.963,1.193l5.368-4.314l-5.643-4.683l-0.826,1.056l1.101,0.872l-0.826,1.056l-1.101-0.872l-0.826,0.964l1.055,0.873l-0.826,1.102l-3.028-2.479l2.845-1.561l-0.826-0.688L7.524,16.8l0.872-2.846L7.57,13.266l-0.964,3.121l-3.074-2.479l0.826-1.01l1.055,0.872l0.872-1.01l-1.102-0.964l0.826-0.964l1.101,0.826l0.78-0.964L5.505,8.813c0.229-0.78,0.734-1.423,1.468-1.882l12.708,10.373v-6.931h-1.285v1.331h-1.285v-1.331h-1.331v1.331h-1.33V7.804l3.028,1.285V7.987L14.682,6.84l2.798-1.102V4.683l-3.028,1.193V1.929h1.33v1.423h1.331V1.929h1.285v1.423h1.285V0.229C20.049,0.092,20.462,0,20.875,0c0.367,0,0.78,0.092,1.147,0.229v17.075L34.73,6.932c0.688,0.459,1.193,1.102,1.468,1.882l-2.432,1.882l0.826,0.964l1.102-0.826l0.826,0.964l-1.101,0.964l0.826,1.01l1.101-0.872l0.826,1.01l-3.074,2.479L34.134,13.266z M8.167,32.039c0,1.103,0.826,1.791,1.79,1.883L8.35,35.161c-1.101-0.413-2.11-1.744-2.11-2.893c0-0.366,0.092-0.596,0.183-0.871c-0.137,0-0.229,0.046-0.321,0.046c-1.468,0-2.707-1.378-2.982-2.801l1.652-1.285c-0.046,0.184-0.046,0.321-0.046,0.459c0,0.919,0.872,1.744,1.79,1.744c0.963,0,1.881-0.825,1.881-1.79c0-1.193-0.917-1.974-2.064-1.974c-2.248,0-4.45,2.157-4.45,5.003c0,0.827,0.183,1.607,0.55,2.296l1.009-0.78c0.688,0.321,1.239,1.01,1.422,1.79l-1.009,0.78c0.963,0.826,2.156,1.193,3.395,1.193c2.569,0,4.634-2.065,4.634-3.902c0-1.055-0.734-1.973-1.835-1.973C9.038,30.204,8.167,30.984,8.167,32.039z M21.792,35.987c0,1.01,0.826,1.836,1.79,1.836c0.688,0,0.963-0.275,1.468-0.688V39.2c-0.505,0.275-1.009,0.413-1.56,0.413c-1.101,0-2.019-0.321-2.615-1.285c-0.642,0.964-1.56,1.285-2.661,1.285c-0.504,0-1.055-0.138-1.56-0.413v-2.065c0.458,0.459,0.826,0.688,1.468,0.688c1.01,0,1.79-0.826,1.79-1.836c0-0.964-0.642-1.836-1.698-1.836c-1.881,0-2.661,1.79-2.661,3.442c0,2.433,1.789,4.498,4.129,4.911v-1.239c0.367-0.184,0.78-0.229,1.147-0.229c0.413,0,0.826,0.046,1.193,0.229v1.239c2.157-0.321,4.129-2.616,4.129-4.911c0-1.698-0.688-3.442-2.661-3.442C22.481,34.151,21.792,35.023,21.792,35.987z M33.217,27.771c0,0.918,0.963,1.79,1.927,1.79c0.917,0,1.79-0.825,1.79-1.744c0-0.138-0.046-0.275-0.046-0.459l1.605,1.285c-0.275,1.562-1.651,2.938-3.257,2.755c0.092,0.275,0.138,0.505,0.138,0.871c0,1.148-1.009,2.479-2.11,2.893l-1.606-1.239c1.009-0.092,1.835-0.78,1.835-1.883c0-1.055-0.918-1.835-1.927-1.835c-1.055,0-1.835,0.918-1.835,2.02c0,1.331,1.605,3.855,4.68,3.855c1.239,0,2.432-0.367,3.349-1.193l-1.009-0.78c0.229-0.78,0.688-1.469,1.422-1.79l1.009,0.78c0.367-0.688,0.596-1.469,0.596-2.296c0-2.203-1.697-5.003-4.404-5.003C34.226,25.797,33.217,26.577,33.217,27.771z"></path></g></svg>
