<?xml version="1.0" encoding="UTF-8"?>
<svg width="202" height="68" viewBox="0 0 202 68" fill="none" xmlns="http://www.w3.org/2000/svg">
                        <rect x="0.258789" width="201.481" height="68" fill="#FFCC00"></rect>
                        <g clip-path="url(#clip0_992_109)">
                            <mask id="mask0_992_109" style="mask-type:luminance" maskUnits="userSpaceOnUse" x="24"
                                y="22" width="154" height="24">
                                <path d="M177.814 22.6665H24.1846V45.3332H177.814V22.6665Z" fill="white"></path>
                            </mask>
                            <g mask="url(#mask0_992_109)">
                                <path                                     d="M45.4208 30.6055C45.1043 30.5823 44.7863 30.5823 44.4698 30.5823C41.4325 30.5823 38.7594 31.2407 36.5948 32.5204C38.4076 30.1136 39.3186 26.9559 39.2618 23.2555V22.6665H32.3715L32.3807 23.3465C32.4253 25.8612 31.8369 27.7423 30.637 28.8971C29.0746 30.3927 26.5397 30.6193 24.6823 30.5284L24.1846 30.5022V37.3773L24.4565 37.3942C24.773 37.4173 25.091 37.4173 25.4075 37.4173C28.4447 37.4173 31.1179 36.759 33.2825 35.4792C31.4697 37.886 30.5587 41.0438 30.6155 44.7442V45.3332H37.5058L37.4966 44.6532C37.452 42.1384 38.0405 40.2575 39.2403 39.1026C40.8026 37.607 43.3375 37.3803 45.1949 37.4714L45.6927 37.4976V30.6224L45.4208 30.6055Z"
                                    fill="white"></path>
                                <path                                     d="M62.4825 31.1529C62.4825 33.7648 60.6665 36.1778 57.5248 36.1778H53.916V41.8811H51.0693V26.128H57.5371C60.6665 26.128 62.4825 28.5425 62.4825 31.1529ZM53.916 28.689V33.6152H57.107C58.6418 33.6152 59.5619 32.6423 59.5866 31.1513C59.5619 29.6604 58.6418 28.6875 57.107 28.6875H53.916V28.689ZM94.7232 39.8242C93.0916 39.8242 92.5017 39.4296 92.5017 38.051V32.7672H95.4713V30.4267H92.1207C92.6599 29.9209 93.1393 29.2194 93.0655 27.6066H90.4875C90.4875 27.7423 90.3524 30.2309 88.0572 31.2284V32.7687H89.8239V38.3364C89.8239 41.0099 91.5047 42.191 94.1932 42.191C94.6602 42.191 95.138 42.1663 95.6051 42.0923V39.7764C95.2978 39.801 95.0166 39.8257 94.7217 39.8257L94.7232 39.8242ZM108.207 26.1388H98.0815V41.8794H100.941V35.4377H107.666V32.8998H100.941V28.7121H108.206V26.1373L108.207 26.1388ZM112.95 30.1908H110.238V41.8918H112.95V30.1908ZM115.54 41.8934H118.252V35.2172C118.252 33.296 119.762 32.4712 121.012 32.4712C122.129 32.4712 122.976 33.148 122.976 34.8117V41.8934H125.687V34.4786C125.687 31.6093 124.288 29.9086 121.625 29.9086C120.09 29.9086 118.557 30.7335 118.102 32.2738L117.894 30.1923H115.537V41.8934H115.54ZM127.554 36.0297C127.554 33.0247 129.296 29.9209 133.15 29.9209C134.917 29.9209 136.243 30.9185 136.452 31.7927L136.636 30.2031H139.018V39.2074C139.018 39.5652 139.202 39.983 140.012 39.9707V41.9782L139.399 42.0522C137.815 42.1508 136.515 41.2273 136.454 40.1064V40.0817C136.122 41.1656 134.711 42.1878 133.152 42.1878C129.287 42.1878 127.555 38.8621 127.555 36.0297H127.554ZM136.391 36.3874V35.4762C136.391 33.5057 135.04 32.4218 133.396 32.4218C131.298 32.4218 130.353 34.3676 130.353 36.019C130.353 37.6702 131.015 39.6407 133.396 39.6407C135.347 39.6531 136.391 38.1868 136.391 36.3889V36.3874ZM142.227 30.1908V41.8918H144.939V35.2156C144.939 33.2945 146.449 32.4696 147.699 32.4696C148.816 32.4696 149.663 33.1465 149.663 34.8101V41.8918H152.374V34.4771C152.374 31.6077 150.975 29.9071 148.312 29.9071C146.777 29.9071 145.244 30.732 144.789 32.2723L144.581 30.1908H142.224H142.227ZM162.603 37.9508C162.111 39.5405 160.959 39.6993 160.222 39.6993C158.711 39.6993 156.969 38.714 156.969 36.1022C156.969 33.4903 158.736 32.4557 160.222 32.4557C160.994 32.4557 162.198 32.6408 162.578 34.2042L165.244 33.5165C164.711 31.3024 162.534 29.9672 160.236 29.9672C156.627 29.9672 154.308 32.7379 154.308 36.076C154.308 39.4141 156.468 42.1601 160.223 42.1848C162.679 42.2079 164.461 40.8942 165.103 38.5984L162.604 37.9478L162.603 37.9508ZM177.471 38.8483C176.834 40.7817 175.188 42.1878 172.571 42.1878C168.915 42.1878 166.571 39.4172 166.571 36.0544C166.571 32.5066 168.916 29.9456 172.389 29.9456C174.807 29.9579 177.814 31.4242 177.814 35.9187L177.789 36.6943H169.338C169.265 38.3934 170.708 39.8474 172.549 39.8474C173.493 39.8474 174.599 39.5637 175.004 38.2098L177.471 38.8483ZM169.449 34.7608L175.021 34.7546C175.021 33.239 173.85 32.1489 172.452 32.1489C170.868 32.1489 169.596 33.3192 169.449 34.7608ZM111.675 28.3806C112.509 28.3806 113.222 27.6914 113.222 26.8527C113.222 26.0139 112.51 25.3247 111.675 25.3247C110.865 25.3247 110.152 26.0139 110.152 26.8527C110.152 27.6914 110.863 28.3806 111.675 28.3806ZM69.2821 29.8223C65.7839 29.8223 63.3181 32.6176 63.3181 36.005C63.3181 39.3925 65.7486 42.1878 69.3067 42.1878C72.8417 42.1878 75.2705 39.3679 75.2705 36.005C75.2705 32.6176 72.8402 29.8223 69.2821 29.8223ZM69.3067 39.7502C67.3801 39.7502 65.8086 38.0757 65.8086 35.9943C65.8086 33.9128 67.3801 32.2383 69.3067 32.2383C71.2332 32.2383 72.8048 33.9128 72.8048 35.9943C72.8048 38.0757 71.2332 39.7502 69.3067 39.7502ZM82.021 42.1878C85.0277 42.1878 87.0279 40.5381 87.0279 38.0866C87.0279 35.3405 84.5114 35.0198 82.3759 34.7485C80.8166 34.5388 79.4432 34.3291 79.4432 33.1835C79.4432 32.3833 80.1299 31.8035 81.5663 31.8035C83.0766 31.8035 83.8861 32.4557 84.218 33.6137L86.8081 32.9491C86.3288 30.9786 84.6727 29.5494 81.6785 29.5494C78.6474 29.5494 76.6963 31.0033 76.6963 33.4533C76.6963 36.224 79.1881 36.5941 81.3604 36.927C82.9567 37.1737 84.2564 37.3712 84.2564 38.4674C84.2564 39.3417 83.4513 39.9059 82.0763 39.9059C80.6399 39.9059 79.5322 39.2691 79.1635 37.9508L76.5488 38.6278C77.1986 40.8573 79.334 42.1878 82.0226 42.1878H82.021Z"
                                    fill="#004B5A"></path>
                            </g>
                        </g>
                        <defs>
                            <clipPath id="clip0_992_109">
                                <rect width="153.63" height="22.6667" fill="white"
                                    transform="translate(24.1846 22.6665)"></rect>
                            </clipPath>
                        </defs>
                    </svg>
