<?xml version="1.0" encoding="UTF-8"?>
<svg width="94" height="44" viewBox="0 0 94 44" fill="none" xmlns="http://www.w3.org/2000/svg">
     <path d="M65.2935 43.9869H60.2417L54.8454 36.5138V43.9869H50.5644V28.2603C50.5819 28.0776 50.6715 27.9093 50.8136 27.7924C50.9557 27.6754 51.1387 27.6194 51.3222 27.6367H54.8454V34.6006L60.3204 27.6367H65.077L58.9131 35.2405L65.2935 43.9869ZM43.2294 37.7838C42.2945 36.0959 36.6259 27.6628 36.6259 27.6628H32.135V43.9869H36.2979V33.6734L43.1868 44H47.3299V27.6367H43.2294V37.7838ZM25.1871 27.6628L30.1635 43.9869H25.7644L24.9509 41.2314H19.2889L18.5049 43.9869H14.0993L18.9871 28.1983C19.0331 28.0235 19.1404 27.8708 19.2896 27.7678C19.4388 27.6649 19.62 27.6184 19.8006 27.6367L25.1871 27.6628ZM24.2226 38.1103L22.2117 30.7873H22.0116L20.0007 38.1103H24.2226ZM13.2004 39.4913C13.2135 42.792 10.458 43.9869 6.68878 43.9869H0V28.3713C0.000419104 28.2736 0.0203415 28.1769 0.058611 28.0869C0.0968805 27.9969 0.152735 27.9153 0.22293 27.847C0.293125 27.7787 0.376261 27.7249 0.467514 27.6888C0.558766 27.6527 0.656315 27.635 0.754497 27.6367H6.76423C9.8019 27.6367 12.5476 28.5802 12.5476 31.7014C12.5476 33.6603 11.7702 35.0381 10.1004 35.4886C11.8489 35.8249 13.2135 37.1112 13.2135 39.4717L13.2004 39.4913ZM3.92667 34.2088H6.22296C7.90582 34.2088 8.6472 33.6701 8.6472 32.3903C8.6472 31.1595 7.85333 30.6208 6.32466 30.6208H3.92995L3.92667 34.2088ZM9.17534 39.0538C9.17534 37.6793 8.3618 37.0949 6.62974 37.0949H3.92667V41.0127H6.49196C8.19778 40.9964 9.18519 40.4577 9.18519 39.0538H9.17534ZM18.7378 19.9121H0V24.0976H18.7476L18.7378 19.9121ZM58.923 11.9688L60.8026 16.6898H56.3839L54.4321 12.1876C54.0319 11.2702 53.753 10.8164 52.9099 10.8164H51.1976V16.693H47.0675V0.982711C47.0847 0.815381 47.1594 0.659076 47.2789 0.540136C47.3984 0.421196 47.5555 0.346892 47.7236 0.329746H53.5595C56.7284 0.329746 59.4446 0.98271 59.4446 5.06047C59.4446 6.88551 58.4309 8.75299 56.5283 9.13171C57.4599 9.44513 58.4145 10.6564 58.9328 11.9688H58.923ZM55.4621 5.3739C55.4621 3.79699 54.478 3.4803 53.2544 3.4803H51.1877V7.58418H53.2544C54.501 7.58418 55.472 6.92795 55.472 5.3739H55.4621ZM25.5775 0.326482H21.969V16.6898H26.204V0.982711C26.1989 0.815792 26.1322 0.656593 26.0166 0.535536C25.9011 0.41448 25.7447 0.340054 25.5775 0.326482ZM43.2229 7.27076H37.8823V10.6139H39.9162V13.4968C39.3082 13.575 38.6955 13.611 38.0824 13.6045C34.989 13.6045 33.3127 11.6456 33.3127 8.48854C33.3127 5.52734 34.7594 3.4803 37.8594 3.4803C39.1764 3.53103 40.4719 3.82901 41.6778 4.35854L43.3377 1.54426C41.996 0.64317 39.9162 0.0130596 37.5444 0.0130596C32.1547 0.0130596 28.9235 3.4803 28.9235 8.50159C28.9235 14.1138 32.1547 17.0195 38.2858 17.0195C40.1665 17.0186 42.0427 16.8383 43.8888 16.4808V8.01514C43.8978 7.92199 43.8875 7.82798 43.8583 7.73901C43.8291 7.65004 43.7818 7.56804 43.7192 7.49814C43.6567 7.42825 43.5803 7.37196 43.4949 7.33284C43.4095 7.29371 43.3169 7.27257 43.2229 7.27076ZM77.8412 8.48854C77.8412 13.2258 74.9872 17.0065 69.9452 17.0065C64.562 17.0065 61.7146 13.2258 61.7146 8.48854C61.7146 3.75128 64.562 0 69.9452 0C74.9872 0.0130593 77.8412 3.79699 77.8412 8.48854ZM73.406 8.48854C73.406 5.05721 71.8478 3.4803 69.9452 3.4803C67.7276 3.4803 66.1497 5.05721 66.1497 8.48854C66.1497 11.9688 67.7276 13.5392 69.9452 13.5392C71.8478 13.5392 73.406 11.9688 73.406 8.48854ZM87.0395 6.47088C85.6191 6.04645 84.4873 5.61549 84.4873 4.76664C84.4873 3.91779 85.3697 3.32032 86.9279 3.32032C88.2204 3.32032 89.3751 3.8427 90.5036 4.51198L92.7966 1.92624C91.76 0.946798 89.7261 0.0130596 87.0985 0.0130596C83.1226 0.0130596 80.0686 1.92625 80.0686 5.35104C80.0686 8.52772 82.8307 9.46472 85.2026 10.1438C87.1707 10.7021 88.6666 11.0416 88.6666 12.1419C88.6666 13.3139 87.3249 13.5164 86.262 13.5164C84.3889 13.5164 82.355 12.5369 81.3086 11.9199L79.4354 15.2271C80.5869 16.0172 83.1686 17.0065 85.9471 17.0065C90.2904 17.0065 93 14.6884 93 11.3126C92.9869 8.03473 89.5556 7.24464 87.0395 6.47088ZM9.49683 9.56919L5.62921 0.326482H0V16.6898H4.2055V7.24464L8.2109 16.6898H10.458L14.5257 7.24464V16.6898H18.7345V0.326482H13.5449L9.49683 9.56919Z" fill="#144B3C"></path>
     </svg>
