<?xml version="1.0" encoding="UTF-8"?>
<svg class="logo" width="100" height="70" viewBox="0 0 100 70" fill="none" xmlns="http://www.w3.org/2000/svg">
     <g clip-path="url(#clip0_1267_58)">
     <path d="M30.8502 49.55C28.0502 49.55 26.7002 47.15 26.7002 42.85C26.7002 38.6 28.0502 36.25 30.8502 36.25C33.0002 36.25 34.3502 37.6 34.6002 40.15H36.8502C36.4502 37.35 34.0502 35.65 30.8002 35.65C27.1002 35.65 23.9502 38.35 23.9502 42.85C23.9502 47.4 26.9502 50.15 30.8002 50.15C34.1002 50.15 36.4502 48.45 36.8502 45.65H34.6002C34.3502 48.15 33.0002 49.55 30.8502 49.55Z" fill="black"></path>
     <path d="M86.3498 42.7999L89.4998 39.9H88.4498L82.9498 45.0499V35.95H80.5498V50H82.9498V45.95L84.5498 44.45L87.3998 50H89.9998L86.3498 42.7999Z" fill="black"></path>
     <path d="M56.1502 46.2999C56.1502 44.2499 54.5502 42.9999 52.0502 42.8499V42.7999C54.2502 42.5499 55.8002 41.35 55.8002 39.45C55.8002 36.95 53.8002 35.95 50.0502 35.95H45.2002V49.95H50.1502C53.9502 50 56.1502 48.9499 56.1502 46.2999ZM47.6502 36.65H49.9502C52.1502 36.65 53.3002 37.6999 53.3002 39.5499C53.3002 41.4499 52.2002 42.5499 49.9502 42.5499H47.6502V36.65ZM49.9502 49.3499H47.6502V43.2H49.9502C52.3502 43.2 53.5502 44.3999 53.5502 46.2999C53.5502 48.2499 52.3502 49.3499 49.9502 49.3499Z" fill="black"></path>
     <path d="M14.55 35.95H10V49.95H14.55C19.15 49.95 22.5 47.6499 22.5 42.8499C22.5 38.0499 19.15 35.95 14.55 35.95ZM14.55 49.3499H12.45V36.65H14.55C18.1 36.65 19.8 38.85 19.8 42.9C19.8 46.95 18.1 49.3499 14.55 49.3499Z" fill="black"></path>
     <path d="M66.7496 43.45C66.7496 40.85 65.0996 39.65 62.4996 39.65C60.1496 39.65 58.4496 40.9 58.2496 42.75H60.2496C60.3496 41.15 61.0996 40.2 62.4996 40.2C63.7996 40.2 64.4496 41 64.4496 42.85V43.9L62.9996 44.1C59.5496 44.55 57.8496 45.3 57.8496 47.25C57.8496 49.35 59.5996 50.1 61.2996 50.1C62.8996 50.1 63.9996 49.25 64.4996 48.1L64.5496 49.95H66.8496C66.7496 48.75 66.7496 48.35 66.7496 48V43.45ZM64.3996 45.85C64.3996 48.05 63.3496 49.3 62.0496 49.3C60.9996 49.3 60.2496 48.6 60.2496 47.15C60.2496 45.45 61.5996 44.75 64.4496 44.55V45.85H64.3996Z" fill="black"></path>
     <path d="M74.5996 39.7C72.9496 39.7 71.7996 40.7 71.3996 42V39.9H69.0996V50H71.4496V44.65C71.4496 41.8 72.5996 40.45 73.9996 40.45C75.1496 40.45 75.8996 41.1999 75.8996 43.0499V50H78.2496V43.65C78.2496 40.75 76.6496 39.7 74.5996 39.7Z" fill="black"></path>
     <path d="M39.4496 59.5999C39.0996 59.4999 38.7496 59.3999 38.7496 59.0499C38.7496 58.7499 38.9996 58.5999 39.3496 58.5999C39.7496 58.5999 39.9996 58.7499 39.9996 59.0999H40.4996C40.4996 58.5499 39.9996 58.2 39.3496 58.2C38.6996 58.2 38.2496 58.5499 38.2496 59.0999C38.2496 59.7499 38.7996 59.9 39.2496 60C39.6496 60.1 40.0496 60.15 40.0496 60.5C40.0496 60.8 39.7996 60.95 39.3996 60.95C38.9496 60.95 38.6496 60.7 38.5996 60.25H38.0996C38.0996 60.9 38.6496 61.3499 39.3996 61.3499C40.0496 61.3499 40.4996 61 40.4996 60.45C40.5496 59.8 39.8496 59.6499 39.4496 59.5999Z" fill="black"></path>
     <path d="M41.9502 60H43.4002V59.55H41.9502V58.7H43.5002V58.25H41.4502V61.35H43.6002V60.9H41.9502V60Z" fill="black"></path>
     <path d="M45 58.25H44.5V61.35H45V58.25Z" fill="black"></path>
     <path d="M45.7998 58.7H46.7998V61.35H47.2998V58.7H48.3498V58.25H45.7998V58.7Z" fill="black"></path>
     <path d="M51.8496 58.7V59.15C52.1496 59.1 52.3996 59 52.5996 58.85V61.3H53.0496V58.25H52.6496C52.4496 58.55 52.1496 58.65 51.8496 58.7Z" fill="black"></path>
     <path d="M55.6496 59.75C55.9496 59.7 56.1496 59.35 56.1496 59.05C56.1496 58.6 55.7496 58.25 55.1496 58.25C54.5496 58.25 54.1496 58.6 54.1496 59.05C54.1496 59.4 54.3496 59.7 54.6996 59.75C54.2996 59.8 54.0996 60.15 54.0996 60.5C54.0996 61 54.5496 61.35 55.1996 61.35C55.8496 61.35 56.2496 61 56.2496 60.5C56.2496 60.15 56.0496 59.85 55.6496 59.75ZM54.6496 59.05C54.6496 58.8 54.8496 58.65 55.1496 58.65C55.4996 58.65 55.6996 58.8 55.6996 59.1C55.6996 59.4 55.4996 59.55 55.1996 59.55C54.8496 59.55 54.6496 59.35 54.6496 59.05ZM55.1996 61C54.8496 61 54.6496 60.8 54.6496 60.5C54.6496 60.15 54.8496 59.95 55.1996 59.95C55.5496 59.95 55.7996 60.15 55.7996 60.5C55.7496 60.8 55.5496 61 55.1996 61Z" fill="black"></path>
     <path d="M58.15 60.45C58.7 60 59.1 59.6499 59.1 59.0999C59.1 58.5499 58.7 58.2 58.1 58.2C57.45 58.2 57 58.6 57 59.25H57.45C57.45 58.85 57.7 58.65 58.05 58.65C58.4 58.65 58.6 58.85 58.6 59.15C58.6 59.5 58.35 59.75 57.75 60.25L57 60.8499V61.2999H59.2V60.9H57.6L58.15 60.45Z" fill="black"></path>
     <path d="M60.9002 59.35C60.6502 59.35 60.4502 59.4 60.3002 59.6L60.4502 58.75H61.7502V58.35H60.1002L59.8502 59.95H60.3502C60.5002 59.85 60.6502 59.75 60.8502 59.75C61.2002 59.75 61.4502 60 61.4502 60.4C61.4502 60.75 61.2002 61.05 60.8002 61.05C60.4002 61.05 60.1502 60.8 60.1502 60.4H59.7002C59.7002 61 60.1502 61.45 60.8002 61.45C61.4502 61.45 61.9002 61 61.9002 60.4C61.8502 59.75 61.4502 59.35 60.9002 59.35Z" fill="black"></path>
     <path d="M45.8004 27.25C45.8004 27.25 45.2504 27.6 45.1504 28.1H47.6004H48.0004C48.2504 28.1 48.4004 27.95 48.4004 27.6C48.4504 27.1 48.8504 26.4 49.4504 26.15V23.45C49.4504 23 49.7504 22.7 50.1504 22.55C48.6504 22.05 47.6504 20.4 47.6004 18.5C47.8004 19.35 48.9004 22.8 52.9004 22C52.7504 23.3 53.0504 25.15 53.6004 26.55C53.8004 27.05 53.4504 27.3 53.4504 27.3H52.7004C52.7004 27.3 52.1504 27.65 52.0504 28.15H55.4504C55.8004 28.15 55.9004 27.95 55.8504 27.6C55.6004 25.65 56.2004 24.05 57.1004 22.8C56.4004 22.3 55.1504 21.85 53.4004 21.9C54.2004 21.75 55.0504 21.65 56.0004 21.65C55.6004 20.85 55.0504 19.4 54.8504 17.8C56.6004 22.1 60.2004 24.6 63.2004 25.5C63.7504 25.65 63.7004 26.05 63.7004 26.55C63.7004 27.1 63.4004 27.35 63.4004 27.35H63.0504C63.0504 27.35 62.5004 27.7 62.4004 28.2H64.7504C65.0004 28.2 65.2504 27.85 65.5504 27.45C65.8004 27.15 65.9504 26.6 65.9504 26.15V24.2C64.0504 24.2 63.5004 22.45 63.0004 20.55C62.5004 18.65 62.0504 17.15 60.2004 15.45C60.2004 15.45 60.6504 15.7 61.1004 15.9C61.5504 16.15 61.9004 15.95 61.9004 15.95C59.5504 12.6 56.2504 11.75 53.8504 11.75C51.4004 11.75 49.3504 12.9 49.4004 12.85C49.9004 13.05 50.5004 13.2 51.3504 13.15C51.3504 13.15 50.8004 13.35 50.1504 13.35C48.6004 13.35 47.0504 12.05 45.2004 12.05C43.9004 12.05 42.9004 12.9 42.1004 13.05C40.7004 13.35 40.7004 13.35 40.7004 13.35C40.6004 14.4 39.9004 14.5 39.5504 14.6C39.9004 14.4 40.3504 13.8 40.1004 13.25V13.2C39.9504 12.9 39.6504 12.9 39.5004 12.95C39.2004 13.05 39.0504 13.2 38.9504 13.35C38.9504 13.35 38.4504 13.3 38.1504 13.45C37.4504 13.75 36.3004 14.4 35.8004 14.8C35.3504 15.15 35.4004 15.5 35.5004 15.6L35.1504 15.85C35.0504 15.95 34.8504 16.1 34.7004 16.15C34.4004 16.3 33.7004 16.65 33.5004 16.8C33.4504 16.85 33.4504 16.9 33.5004 17C33.5504 17.1 33.7504 17.35 33.8504 17.55C34.0504 17.85 34.3504 17.9 34.7004 18.05C34.8504 18.1 35.1504 18.1 35.3004 18.05C35.5504 17.95 35.9504 17.8 36.3004 17.95C36.4504 18 36.8004 18.2 36.8004 18.5C36.8004 18.8 36.6004 18.9 36.4504 18.95C36.3504 19 36.2004 19 36.0504 19.05C35.8504 19.1 35.5504 19 35.4504 19.15C35.3004 19.3 35.5004 19.45 35.5504 19.5C35.7504 19.6 36.2004 19.75 36.6504 19.65C37.4504 19.5 37.7004 19.45 37.9004 19.4C38.6504 19.25 39.7504 19.15 40.4004 19.2C40.7504 19.25 41.0504 19.3 41.3504 19.4C41.1504 21.45 39.9004 22.65 39.0504 23.3C39.0504 23.3 38.3004 23.85 37.9504 24.05C37.3004 24.55 37.2004 25.05 37.2004 25.45L36.7504 26C36.7504 26 36.7504 26.4 37.0004 26.85C37.0004 26.85 38.4004 25.8 38.8004 25.6C38.8004 25.3 39.0504 25.1 39.3004 25.1C39.4504 25.1 39.6004 25.2 39.7004 25.3C40.5504 25.1 42.3504 24.55 43.7004 23.8C43.7004 23.8 43.5504 22.9 44.2004 22.4C43.7504 21.3 43.0504 20.4 42.5004 19.95C45.1004 21.35 46.8004 24.55 46.8004 27.1C46.8004 27.1 46.8004 27.35 46.6004 27.5H45.8004V27.25Z" fill="black"></path>
     </g>
     <defs>
     <clipPath id="clip0_1267_58">
     <rect width="100" height="70" fill="white"></rect>
     </clipPath>
     </defs>
     </svg>
