<?xml version="1.0" encoding="UTF-8"?>
<svg class="logo" xmlns="http://www.w3.org/2000/svg" xmlns:xlink="http://www.w3.org/1999/xlink" version="1.1" id="Ebene_1" x="0px" y="0px" viewBox="0 0 481.89 68.031" style="enable-background:new 0 0 481.89 68.031" xml:space="preserve"><g><g><polygon style="fill:#006E58" points="344.198,8.744 324.7,59.866 311.454,59.866 291.863,8.744 306.789,8.744 318.823,42.794     330.95,8.744   "></polygon><path style="fill:#006E58" d="M378.528,25.909c-0.28-2.519-1.306-4.664-3.172-6.343c-1.865-1.772-4.011-2.612-6.437-2.612    c-3.078,0-5.597,1.213-7.463,3.638c-1.772,2.426-2.706,5.691-2.706,9.796c0,0.56,0.094,1.026,0.094,1.306L378.528,25.909z     M359.963,40.275c1.026,2.985,2.799,5.411,5.411,7.183c2.706,1.773,5.784,2.706,9.329,2.706c5.971,0,11.754-1.772,17.352-5.318    l-3.525,13.565l-1.979,0.615c-4.665,1.493-9.329,2.239-13.807,2.239c-8.116,0-14.74-2.518-19.777-7.463    c-5.037-5.038-7.556-11.568-7.556-19.684c0-7.743,2.332-14.086,6.904-19.124c4.664-5.13,10.448-7.649,17.538-7.649    c7.556,0,13.62,2.892,18.098,8.583c2.426,3.171,4.384,7.836,5.877,14.18L359.963,40.275z"></path><path style="fill:#006E58" d="M431.31,8.332c-1.026-0.186-2.053-0.28-3.265-0.28c-6.064,0-10.868,2.557-14.226,8.528V8.744    h-12.967v51.122h13.433V37.477c0-5.411,0.653-9.235,1.866-11.474c2.146-3.639,5.597-6.028,10.262-6.028    c1.173,0,2.634,0.175,3.836,0.418L431.31,8.332z"></path><path style="fill:#006E58" d="M45.205,34.629c-1.858-1.687-4.562-2.828-8.059-3.406c2.219-0.841,4.008-2.031,5.339-3.552    c1.837-2.099,2.768-4.774,2.768-7.95c0-1.792-0.289-3.435-0.858-4.884c-0.581-1.476-1.445-2.67-2.567-3.549    c-0.629-0.482-1.307-0.894-2.021-1.228c-0.717-0.334-1.547-0.611-2.468-0.824c-0.914-0.211-1.98-0.353-3.166-0.423    C33.01,8.745,31.632,8.71,30.078,8.71H3.088v3.384l6.079,0.184L9.167,56.326l-6.079,0.173v3.384h6.079h19.819    c3.047,0,5.812-0.364,8.217-1.081c2.426-0.723,4.523-1.779,6.233-3.137c1.723-1.369,3.053-3.071,3.952-5.057    c0.894-1.979,1.347-4.239,1.347-6.719C48.735,39.873,47.547,36.758,45.205,34.629z M18.832,12.266h7.218    c3.219,0,5.604,0.601,7.088,1.788c1.445,1.156,2.177,3.029,2.177,5.566c0,3.493-1.114,6.183-3.311,7.996    c-2.229,1.839-5.541,2.772-9.847,2.772h-3.326V12.266z M34.563,52.972c-2.268,2.226-5.453,3.354-9.469,3.354h-6.262V34.449h7.969    c3.896,0,6.772,0.749,8.548,2.225c1.744,1.451,2.629,3.797,2.629,6.973C37.978,47.612,36.829,50.749,34.563,52.972z"></path><path style="fill:#006E58" d="M223.461,56.326l-23.881-29.81l9.426-7.664c1.562-1.205,3.191-2.356,4.836-3.415    c1.609-1.036,3.203-1.697,5.056-2.277c1.096-0.342,2.311-0.634,3.056-0.765c0.94-0.166,2.534-0.315,2.534-0.315V8.71h-18.634    l-0.001,3.383c1.878,0.042,2.25,0.089,2.8,0.228c0.464,0.118,0.769,0.608,0.352,1.148c-0.208,0.269-0.45,0.533-0.721,0.783    c-0.296,0.273-0.589,0.532-0.869,0.769c-0.281,0.237-0.514,0.426-0.692,0.559l-18.644,15.12V12.267l6.216-0.175V8.71h-22.233    v3.382l6.147,0.175v44.059l-5.528,0.173v3.385h15.398l6.221-0.001l-0.005-3.384l-6.216-0.173V35.968l3.856-3.405l18.425,23.764    l-4.158,0.173v3.385h23.175v-3.385L223.461,56.326z"></path><path style="fill:#006E58" d="M101.807,56.326L84.576,8.71H68.182v3.384l5.247,0.173L58.804,48.662    c-0.622,1.465-1.242,2.774-1.838,3.767c-0.578,0.964-1.158,1.901-1.878,2.493c-0.714,0.588-1.507,1.012-2.387,1.284    c-0.904,0.281-2.679,0.293-2.679,0.293v3.384h18.887v-3.384h-0.565c-1.519-0.023-2.024,0.009-2.867-0.173    c-0.848-0.183-1.658-0.448-2.219-1.049c-0.683-0.683-0.916-1.59-0.916-2.858c0-0.456,0.114-1.101,0.217-1.532    c0.105-0.446,0.31-1.08,0.573-1.737l3.338-8.247h19.02l5.577,15.48l-4.718,0.116l0,3.384h5.979h14.115v-3.384L101.807,56.326z     M67.953,37.042l8.561-20.975l7.61,20.975H67.953z"></path><path style="fill:#006E58" d="M148.475,8.71v3.384h1.32c2.473,0,4.153,0.629,4.993,1.868c0.887,1.308,1.336,3.476,1.336,6.442    v24.89l-0.611-0.844L127.472,8.71h-15.421v3.382l5.569,0.175v35.855c0,1.682-0.111,3.079-0.33,4.154    c-0.208,1.018-0.57,1.841-1.075,2.447c-0.498,0.597-1.202,1.043-2.092,1.325c-0.948,0.302-3.571,0.451-3.571,0.451v3.385h20.558    v-3.385c0,0-1.919,0.009-2.881-0.026c-0.85-0.031-1.369-0.127-2.176-0.302c-0.781-0.168-1.483-0.433-2.086-0.788    c-0.565-0.33-1.033-0.841-1.391-1.518c-0.589-1.176-0.89-2.998-0.89-5.402V17.55l0.635,0.889l32.339,41.444h5.667V20.744v-1.434    c0-1.455,0.099-2.668,0.295-3.605c0.184-0.877,0.497-1.571,0.93-2.064c0.427-0.486,1.006-0.843,1.721-1.061    c0.771-0.235,1.771-0.44,2.988-0.484l0.743-0.017V8.71H148.475z"></path></g><path style="fill:#006E58" d="M477.948,53.243V27.682c0-5.131-0.466-8.956-1.306-11.381c-0.933-2.519-2.612-4.385-5.038-5.784   c-3.452-1.959-8.769-2.892-16.232-2.892c-4.775,0-11.082,0.157-16.057,1.157l-0.959,11.611c4.53-2.665,9.651-3.066,15.15-3.066   c5.411,0,8.77,1.306,10.075,3.825c0.746,1.492,1.119,3.544,1.119,6.343l-0.002,0.319c-0.249,0.032-0.557,0.049-0.744,0.054   c-21.363,0.466-31.998,6.717-31.998,18.657c0,4.572,1.586,8.116,4.665,10.822c3.171,2.705,7.37,4.011,12.687,4.011   c6.25,0,11.567-2.146,15.952-6.437c0,1.493,0.159,3.263,0.533,4.942l13.274,0.002C478.321,58.187,477.948,56.041,477.948,53.243z    M464.701,46.806c-2.705,3.358-6.343,4.944-10.821,4.944c-5.131,0-7.743-2.332-7.743-6.904c0-6.25,5.504-9.329,16.699-9.329h1.865   V46.806z"></path><path style="fill:#006E58" d="M288.352,53.243V27.682c0-5.131-0.466-8.956-1.306-11.381c-0.933-2.519-2.612-4.385-5.038-5.784   c-3.452-1.959-8.769-2.892-16.232-2.892c-4.775,0-11.082,0.157-16.057,1.157l-0.959,11.611c4.53-2.665,9.651-3.066,15.15-3.066   c5.411,0,8.77,1.306,10.075,3.825c0.746,1.492,1.119,3.544,1.119,6.343l-0.002,0.319c-0.249,0.032-0.557,0.049-0.744,0.054   c-21.363,0.466-31.998,6.717-31.998,18.657c0,4.572,1.586,8.116,4.665,10.822c3.171,2.705,7.37,4.011,12.687,4.011   c6.25,0,11.567-2.146,15.952-6.437c0,1.493,0.159,3.263,0.533,4.942l13.274,0.002C288.724,58.187,288.352,56.041,288.352,53.243z    M275.104,46.806c-2.705,3.358-6.343,4.944-10.821,4.944c-5.131,0-7.743-2.332-7.743-6.904c0-6.25,5.504-9.329,16.699-9.329h1.865   V46.806z"></path></g></svg>
